<svg width="13" height="22" viewBox="0 0 13 22" fill="none" xmlns="http://www.w3.org/2000/svg">
<mask id="mask0_9733_9462" style="mask-type:alpha" maskUnits="userSpaceOnUse" x="0" y="0" width="13" height="22">
<rect width="12.8" height="21.6" fill="#F0F2F8"/>
</mask>
<g mask="url(#mask0_9733_9462)">
<path d="M1.18458 11.5901L3.89135 2.35931C3.9538 2.14632 4.14919 2 4.37115 2H10.653C11.0329 2 11.274 2.40687 11.0916 2.74007L7.9018 8.56762C7.71942 8.90082 7.96054 9.30769 8.3404 9.30769H11.0356C11.6234 9.30769 11.9494 9.9883 11.5811 10.4463L4.59272 19.137C4.27765 19.5288 3.64632 19.2628 3.70669 18.7637L4.42899 12.7908C4.465 12.493 4.23255 12.2308 3.9326 12.2308H1.66438C1.33075 12.2308 1.0907 11.9102 1.18458 11.5901Z" fill="#FFCA35"/>
</g>
</svg>
